<svg version="1" xmlns="http://www.w3.org/2000/svg" width="874.667" height="874.667" viewBox="0 0 656.000000 656.000000"><path d="M544 49.2c-33.6 2.4-70.3 13-101.3 29.2-44.3 23.1-82.7 57.6-110.3 99.2-4.6 7-8.4 13.1-8.4 13.6s3.8 5.4 8.5 11c27.3 32.6 46.8 68.3 60.4 110.3 2.4 7.1 4.6 13.3 5 13.8.4.4 2.9.3 5.7-.2 2.7-.5 7.4-1.2 10.4-1.6 3-.4 5.7-.8 6-1 .3-.2 2.5-.6 5-1 7.6-1.1 34-9.1 46.6-14 22.6-8.9 47.6-23.1 67-38 11.6-8.9 12.7-9.9 25.2-22 50.6-49 81.2-116.6 84.8-187.7l.6-12.7-47.8.2c-26.4.1-52.2.5-57.4.9zM8.5 136.6c.3 4.9.7 10.9 1 13.4.2 2.5.7 7.4 1 11 2.6 28.5 13 63.2 27.6 92.2 27.2 54.2 69.1 96.6 122.3 123.8 29.5 15 62.1 25.3 90.1 28.5 3.3.3 7.1.8 8.5 1 1.4.2 8.4.7 15.5 1 7.2.4 13.1.8 13.1.8.1.1.4 41.6.7 92.2.5 99.1.3 95.6 5.7 101.2 5.2 5.6 6.4 5.8 35 5.8 26 0 26.6 0 30.3-2.3 2-1.3 5-4.5 6.5-7l2.7-4.7V499c0-84.3-.6-122-1.9-126.1-.3-.8-.7-3.7-1-6.4-1.3-11.7-5.9-31.2-10.6-45.5-9.7-29.6-24.7-58.3-42.8-82-44-57.3-106.6-95.4-175.7-106.9-18.7-3.1-18.9-3.1-75.3-3.8l-53.3-.6.6 8.9z"/></svg>